<svg width="312" height="305" viewBox="0 0 312 305" fill="none" xmlns="http://www.w3.org/2000/svg">
<path d="M86.8194 227.576C83.5414 231.507 78.0857 236.689 72.1094 242.753L152.561 267.292C147.202 240.823 138.265 212.519 164.319 171.985C176.546 152.963 206.224 120.775 199.948 95.3104C192.799 66.2985 168.569 74.6345 166.12 52.6469C162.292 18.2806 137.722 -8.98783 105.027 2.7827C72.7574 14.3995 64.6818 73.6975 94.0004 144.422C109.287 197.542 103.936 207.051 86.8194 227.576Z" fill="url(#paint0_linear_99_24406)"/>
<mask id="mask0_99_24406" style="mask-type:luminance" maskUnits="userSpaceOnUse" x="72" y="0" width="129" height="268">
<path d="M86.8194 227.576C83.5414 231.507 78.0857 236.689 72.1094 242.753L152.561 267.292C147.202 240.823 138.265 212.519 164.319 171.985C176.546 152.963 206.224 120.775 199.948 95.3104C192.799 66.2985 168.569 74.6345 166.12 52.6469C162.292 18.2806 137.722 -8.98783 105.027 2.7827C72.7574 14.3995 64.6818 73.6975 94.0004 144.422C109.287 197.542 103.936 207.051 86.8194 227.576Z" fill="white"/>
</mask>
<g mask="url(#mask0_99_24406)">
<path d="M115.125 250.78C117.377 240.065 118.959 229.845 120.632 219.025L121.191 215.417C121.676 210.157 122.297 204.984 122.898 199.981C124.254 188.685 125.535 178.015 125.362 166.452C125.426 165.788 125.521 165.148 125.621 164.47C125.98 162.05 126.35 159.547 125.314 156.941L125.297 156.837C128.789 96.3571 119.864 34.1438 98.7695 -28.0739L99.2317 -28.2305C120.34 34.0279 129.274 96.2859 125.787 156.812C126.848 159.522 126.453 162.188 126.104 164.542C126.004 165.213 125.91 165.848 125.849 166.472C126.023 178.04 124.74 188.726 123.382 200.04C122.782 205.039 122.161 210.209 121.676 215.477L121.115 219.1C119.44 229.926 117.858 240.153 115.603 250.881L115.125 250.78Z" fill="#FCFDFE"/>
<path d="M122.684 197.834C126.481 169.561 146.489 138.355 162.605 117.154C180.058 94.195 196.832 77.6988 197 77.5352L197.341 77.8836C197.174 78.0474 180.421 94.5229 162.989 117.455C146.911 138.607 126.95 169.734 123.167 197.899L122.684 197.834Z" fill="#FCFDFE"/>
<path d="M122.549 72.4056C124.907 42.1793 134.381 11.0033 137.494 0.758787C138.09 -1.20079 138.483 -2.49534 138.514 -2.75391L138.999 -2.69613C138.964 -2.4068 138.655 -1.38444 137.961 0.900899C134.852 11.133 125.389 42.2703 123.035 72.4436L122.549 72.4056Z" fill="#FCFDFE"/>
<path d="M125.965 121.841C119.831 94.5471 70.6116 63.6295 70.1152 63.3203L70.373 62.9062C70.8712 63.2162 120.263 94.2434 126.441 121.734L125.965 121.841Z" fill="#FCFDFE"/>
</g>
<path d="M98.8769 140.314C94.6182 181.257 115.9 170.07 133.617 176.212C151.085 209.01 149.798 237.411 115.643 258.11L81.3338 248.839C68.4486 246.737 53.7063 241.016 56.5631 223.865C59.7941 204.468 65.8438 192.611 44.9331 180.478C24.0228 168.345 16.5891 149.766 27.8107 130.914C39.6199 111.075 20.8779 80.3157 38.5887 68.1586C69.4486 46.9756 103.311 97.681 98.8769 140.314Z" fill="url(#paint1_linear_99_24406)"/>
<mask id="mask1_99_24406" style="mask-type:luminance" maskUnits="userSpaceOnUse" x="22" y="63" width="123" height="196">
<path d="M98.8809 140.314C94.6221 181.257 115.904 170.07 133.621 176.212C151.089 209.01 149.801 237.411 115.647 258.11L81.3377 248.839C68.4525 246.737 53.7102 241.016 56.567 223.865C59.798 204.468 65.8477 192.611 44.937 180.478C24.0267 168.345 16.593 149.766 27.8147 130.914C39.6238 111.075 20.8818 80.3157 38.5926 68.1586C69.4525 46.9756 103.315 97.681 98.8809 140.314Z" fill="white"/>
</mask>
<g mask="url(#mask1_99_24406)">
<path d="M99.0696 214.489C86.3405 196.852 75.7643 177.667 67.6347 157.466C59.4355 137.091 53.8353 115.954 50.9907 94.6409C49.3595 82.4198 48.6384 70.0775 48.8479 57.957L49.3792 57.9665C49.1708 70.06 49.89 82.3755 51.5178 94.5708C54.3565 115.84 59.945 136.934 68.1283 157.268C76.2416 177.429 86.7971 196.576 99.5007 214.178L99.0696 214.489Z" fill="#FCFDFE"/>
<path d="M58.8883 232.591L58.7031 232.093C65.5706 229.541 73.5186 227.851 82.3264 227.071C86.5234 226.699 90.6598 226.612 94.6209 226.812L94.5944 227.343C90.6576 227.144 86.5459 227.23 82.3736 227.601C73.6126 228.377 65.7111 230.056 58.8883 232.591Z" fill="#FCFDFE"/>
<path d="M73.0799 169.922C57.0716 150.393 18.5082 147.539 18.1211 147.515L18.1574 146.984C18.5482 147.013 57.3369 149.877 73.4912 169.585L73.0799 169.922Z" fill="#FCFDFE"/>
<path d="M56.1222 121.83C53.9501 93.381 78.5288 63.6446 78.7773 63.3477L79.1849 63.6887C78.9378 63.9843 54.4969 93.558 56.6526 121.789L56.1222 121.83Z" fill="#FCFDFE"/>
</g>
<path d="M311.999 254.196L14.3086 251.746V258.996C14.3086 260.964 15.607 262.637 17.3656 262.935L101.544 277.211C102.543 277.381 103.556 277.426 104.564 277.345L308.764 261.068C310.587 260.923 311.999 259.244 311.999 257.223L311.999 254.196Z" fill="url(#paint2_linear_99_24406)"/>
<path d="M203.969 242.443L17.3874 255.706C14.0486 255.943 11.334 253.421 11.334 250.073V115.907C11.334 112.558 14.0486 109.844 17.3874 109.844H203.969C206.719 109.844 208.943 112.298 208.943 115.325V236.608C208.943 239.635 206.72 242.247 203.969 242.443Z" fill="url(#paint3_linear_99_24406)"/>
<path d="M206.943 242.443L20.362 255.706C17.0232 255.943 14.3086 253.421 14.3086 250.073V115.907C14.3086 112.558 17.0232 109.844 20.362 109.844H206.943C209.694 109.844 211.918 112.298 211.918 115.325V236.608C211.918 239.635 209.694 242.247 206.943 242.443Z" fill="url(#paint4_linear_99_24406)"/>
<path d="M205.236 122.124V229.111C205.236 231.6 203.402 233.741 201.131 233.893L166.366 236.197L40.5495 244.539L27.3492 245.415C24.635 245.593 22.4258 243.522 22.4258 240.789V123.327C22.4258 120.594 24.635 118.367 27.3492 118.356L93.2058 118.084L115.53 117.989L133.312 117.916L148.951 117.851L201.131 117.633C203.402 117.626 205.236 119.635 205.236 122.124Z" fill="url(#paint5_linear_99_24406)"/>
<g opacity="0.3">
<path d="M187.884 192.33C190.976 191.807 193.258 188.864 192.981 185.754L192.04 175.151C191.764 172.041 189.036 169.934 185.943 170.45L179.977 171.438C178.691 166.616 176.911 162.06 174.687 157.805L179.766 153.823C182.31 151.828 182.924 148.231 181.136 145.786L175.039 137.447C173.248 134.998 169.727 134.624 167.177 136.618L161.828 140.793C158.384 137.534 154.579 134.667 150.488 132.233L153.319 125.896C154.638 122.942 153.406 119.628 150.565 118.495L148.951 117.852L133.313 117.917L133.309 117.921L130.399 124.414C125.755 123.436 120.926 122.928 115.97 122.942L115.531 117.99L93.2066 118.084C93.1339 118.542 93.1158 119.011 93.1593 119.483L93.777 126.452C88.9228 127.993 84.2718 130.009 79.8753 132.433L75.8568 126.993C74.0217 124.512 70.4137 124.13 67.7977 126.143L58.8558 133.018C56.2286 135.034 55.5891 138.69 57.4315 141.175L61.3774 146.498C57.7367 150.208 54.4593 154.262 51.596 158.586L45.4956 156.21C42.5778 155.073 39.1079 156.584 37.7453 159.589L33.0981 169.839C31.7319 172.851 32.9964 176.209 35.9249 177.339L41.753 179.595C40.2815 184.533 39.3041 189.634 38.8754 194.827L32.684 195.851C29.4648 196.385 27.0811 199.394 27.3647 202.57L28.3238 213.401C28.6074 216.577 31.4449 218.71 34.6643 218.168L40.5105 217.184C41.7059 222.238 43.4353 227.023 45.6445 231.481L41.0446 235.075C38.4031 237.135 37.76 240.812 39.6131 243.286L40.5504 244.54L166.366 236.197C167.991 234.057 169.506 231.837 170.905 229.548L175.581 231.357C178.408 232.447 181.758 230.928 183.069 227.96L187.531 217.855C188.839 214.894 187.615 211.602 184.795 210.505L179.879 208.586C181.191 203.612 181.997 198.485 182.252 193.279L187.884 192.33ZM114.945 238.054C91.1098 242.178 69.9669 226.227 67.8522 202.402C65.7376 178.581 83.476 156.123 107.333 152.261C131.049 148.424 151.865 164.433 153.954 187.996C156.044 211.555 138.639 233.959 114.945 238.054Z" fill="url(#paint6_linear_99_24406)"/>
</g>
<path d="M120.242 113.514C120.242 114.76 119.282 115.774 118.096 115.777C116.909 115.781 115.945 114.771 115.945 113.522C115.945 112.272 116.909 111.259 118.096 111.258C119.282 111.257 120.242 112.267 120.242 113.514Z" fill="white"/>
<path opacity="0.48" d="M161.99 205.646C147.606 197.861 136.296 207.725 125.381 197.993C118.764 192.093 122.013 187.693 113.87 178.876C104.852 169.11 98.9803 172.392 89.917 163.603C78.457 152.489 84.1887 143.843 74.3173 135.863C62.342 126.183 49.4273 135.143 38.0276 125.86C33.1109 121.856 30.4131 116.035 29.0044 109.844H17.8505C15.8959 109.844 14.3086 111.437 14.3086 113.403V252.477C14.3086 254.443 15.8959 255.923 17.8505 255.783L208.007 242.206C208.941 242.14 209.768 241.592 210.299 240.797C196.379 240.287 187.827 235.593 182.361 230.741C171.667 221.248 173.522 211.887 161.99 205.646Z" fill="white"/>
<path d="M214.38 241.844L14.3086 255.804L101.543 270.599C102.542 270.768 103.555 270.813 104.564 270.733L311.999 254.197L217.563 241.938C216.506 241.801 215.441 241.77 214.38 241.844Z" fill="url(#paint7_linear_99_24406)"/>
<path opacity="0.3" d="M43.502 256.151L210.067 244.355L261.618 250.993L96.4873 263.602L43.502 256.151Z" fill="url(#paint8_linear_99_24406)"/>
<path d="M118.209 215.476C138.016 215.476 154.072 199.42 154.072 179.613C154.072 159.807 138.016 143.75 118.209 143.75C98.4022 143.75 82.3457 159.807 82.3457 179.613C82.3457 199.42 98.4022 215.476 118.209 215.476Z" fill="white"/>
<path d="M100.564 187.789C100.181 187.789 99.8193 187.56 99.6673 187.184C98.653 184.672 98.1387 182.012 98.1387 179.28C98.1387 167.632 107.615 158.156 119.262 158.156C125.938 158.156 132.294 161.366 136.265 166.743C136.582 167.172 136.491 167.777 136.062 168.094C135.632 168.411 135.027 168.32 134.71 167.891C131.102 163.006 125.327 160.089 119.262 160.089C108.681 160.089 100.072 168.698 100.072 179.28C100.072 181.763 100.539 184.179 101.46 186.46C101.659 186.955 101.42 187.518 100.925 187.718C100.807 187.766 100.684 187.789 100.564 187.789Z" fill="url(#paint9_linear_99_24406)"/>
<path d="M132.446 168.458C131.922 168.458 131.492 168.059 131.481 167.532C131.469 166.998 131.892 166.567 132.426 166.555L134.842 166.508L135.256 164.055C135.345 163.528 135.845 163.175 136.37 163.264C136.896 163.352 137.251 163.851 137.162 164.378L136.616 167.623C136.539 168.08 136.147 168.398 135.683 168.408L132.468 168.458C132.461 168.458 132.453 168.458 132.446 168.458Z" fill="url(#paint10_linear_99_24406)"/>
<path d="M119.264 200.405C112.734 200.405 106.674 197.456 102.638 192.313C102.308 191.893 102.382 191.285 102.802 190.956C103.221 190.626 103.829 190.7 104.158 191.119C107.826 195.792 113.332 198.472 119.264 198.472C129.846 198.472 138.455 189.863 138.455 179.281C138.455 177.11 138.096 174.979 137.386 172.949C137.21 172.446 137.476 171.894 137.98 171.718C138.484 171.542 139.035 171.808 139.211 172.312C139.992 174.547 140.388 176.892 140.388 179.281C140.388 190.929 130.912 200.405 119.264 200.405Z" fill="url(#paint11_linear_99_24406)"/>
<path d="M102.27 195.18C102.207 195.18 102.143 195.173 102.078 195.16C101.555 195.055 101.216 194.545 101.322 194.022L101.959 190.859C102.05 190.408 102.447 190.074 102.906 190.074C102.91 190.074 102.913 190.074 102.917 190.074L106.207 190.12C106.741 190.126 107.169 190.569 107.163 191.102C107.157 191.636 106.715 192.071 106.186 192.061L103.695 192.034L103.217 194.404C103.124 194.863 102.721 195.18 102.27 195.18Z" fill="url(#paint12_linear_99_24406)"/>
<path d="M117.299 189.491C116.994 189.491 116.687 189.41 116.411 189.241L109.951 185.28C109.15 184.789 108.899 183.742 109.39 182.941C109.881 182.141 110.928 181.89 111.729 182.38L116.952 185.582L128.693 171.868C129.304 171.155 130.378 171.071 131.091 171.683C131.805 172.293 131.888 173.367 131.277 174.081L118.592 188.897C118.259 189.286 117.782 189.491 117.299 189.491Z" fill="url(#paint13_linear_99_24406)"/>
<path d="M69.2251 200.241C70.7954 199.223 69.3646 196.261 69.2801 189.9C69.1764 182.104 71.2468 180.652 69.5839 177.593C67.5506 173.854 62.4319 172.306 59.0405 172.233C58.2926 172.217 58.1177 171.808 51.8516 173.431C40.5623 176.355 37.7361 173.221 32.6805 176.351C27.7962 179.376 29.935 182.689 25.1919 186.237C17.5038 191.987 9.41892 185.77 3.92418 190.58C-1.27318 195.129 -1.39282 206.721 4.07389 213.046C10.2712 220.217 21.4461 218.063 28.9362 216.641C30.5121 216.341 38.4717 214.67 46.7593 208.553C51.344 205.169 54.4919 201.555 56.4947 198.893C56.9647 198.364 57.6982 197.723 58.6664 197.62C59.8287 197.495 60.7625 198.206 61.2125 198.518C63.5751 200.154 67.6826 201.241 69.2251 200.241Z" fill="url(#paint14_linear_99_24406)"/>
<path d="M62.9149 195.967C64.934 194.128 72.1389 197.673 76.9138 202.378C82.5234 207.906 82.0922 212.388 86.9876 219.256C89.4212 222.67 93.5937 227.266 100.987 231.292C100.463 232.6 99.94 233.908 99.4167 235.217C95.8423 235.432 88.8246 235.305 82.2778 231.03C77.7299 228.061 75.39 224.126 70.8956 216.377C66.385 208.601 60.3912 198.267 62.9149 195.967Z" fill="url(#paint15_linear_99_24406)"/>
<path d="M108.421 301.106L102.797 297.727H100.259C100.259 297.727 99.3941 300.945 99.4921 301.106C100.623 302.959 105.889 304.369 109.175 304.486C109.72 304.505 110.481 304.508 110.678 304.113C111.011 303.443 109.523 302.038 108.421 301.106Z" fill="url(#paint16_linear_99_24406)"/>
<path d="M102.698 294.039C102.336 296.131 102.794 297.222 103.286 297.833C103.633 298.263 103.942 298.386 106.001 300.166C106.682 300.754 107.028 301.07 106.95 301.235C106.86 301.423 106.259 301.321 104.961 301.009C102.133 300.329 100.712 299.975 100.365 299.294C100.051 298.678 100.328 298.4 100.31 296.721C100.298 295.616 100.073 294.726 99.8965 294.169C100.83 294.126 101.764 294.083 102.698 294.039Z" fill="#D8DEE8"/>
<path d="M106.764 277.459C106.764 277.459 109.305 280.491 108.892 283.815C108.478 287.139 104.028 282.279 103.408 280.637C102.787 278.994 102.062 276.654 102.062 276.654C102.062 276.654 105.183 274.713 106.764 277.459Z" fill="url(#paint17_linear_99_24406)"/>
<path d="M105.794 272.715C105.794 272.715 105.105 276.247 106.42 278.112C107.075 279.04 107.958 279.828 107.698 280.584C107.524 281.09 106.863 281.454 106.303 281.397C105.231 281.287 104.637 279.643 104.218 278.484C103.599 276.772 103.254 273.109 103.254 273.109L105.794 272.715Z" fill="#D8DEE8"/>
<path d="M103.769 275.693C104.551 275.408 105.332 275.123 106.114 274.839C107.333 272.054 108.821 267.48 108.324 261.921C107.046 247.625 93.8231 240.049 92.3542 239.238C88.7516 241.046 85.1026 243.596 84.9705 246.81C84.8046 250.846 90.3019 252.979 95.4695 258.879C98.5714 262.421 101.886 267.699 103.769 275.693Z" fill="url(#paint18_linear_99_24406)"/>
<path d="M102.925 295.677C105.508 285.59 104.848 277.359 104.103 272.618C102.977 265.451 100.687 250.874 90.9546 245.438C88.8293 244.251 85.7908 243.188 82.0878 239.888C78.9953 237.132 77.0297 234.233 75.8438 232.191C62.8274 228.373 50.8216 229.92 45.5238 236.901C44.9116 237.708 43.3791 239.457 43.0827 242.037C42.4137 247.858 48.1332 254.866 54.5511 256.329C62.7077 258.189 67.4396 249.814 74.6663 252.601C76.6878 253.38 78.4015 255.312 81.8293 259.175C86.1899 264.089 88.641 268.624 89.5684 270.439C92.3298 275.842 94.4238 279.831 94.7293 285C94.8003 286.204 94.8429 288.637 96.2534 291.261C97.3362 293.276 98.8038 294.619 99.8957 295.448C100.905 295.524 101.915 295.601 102.925 295.677Z" fill="url(#paint19_linear_99_24406)"/>
<path opacity="0.3" d="M43.0827 242.037C43.3792 239.457 44.9117 237.708 45.5238 236.901C50.8216 229.92 62.8274 228.373 75.8438 232.191C77.0298 234.233 78.9954 237.132 82.0877 239.888C85.7908 243.188 88.8293 244.251 90.9546 245.438C96.8978 248.757 100.063 255.484 101.885 261.852C99.1816 257.66 96.8671 256.545 95.0759 256.526C92.5121 256.497 91.3666 258.689 88.3053 258.39C85.0333 258.07 84.2853 255.365 81.6331 255.054C80.8392 254.961 79.8624 255.083 78.6892 255.708C77.1236 254.069 75.9566 253.098 74.6663 252.601C67.4398 249.814 62.7077 258.189 54.5511 256.329C48.1332 254.866 42.4136 247.858 43.0827 242.037Z" fill="url(#paint20_linear_99_24406)"/>
<path d="M96.1829 249.947C94.7097 249.869 92.4409 249.824 89.7043 250.094C76.7166 251.378 73.1363 257.802 62.4023 259.37C59.8631 259.74 48.5575 261.392 43.6607 254.856C40.1453 250.164 40.6771 242.079 44.5224 238.899C46.1497 237.553 47.7608 237.59 58.183 237.684C62.108 237.72 66.033 237.733 69.9578 237.783C86.5718 237.994 89.7491 236.844 92.772 239.592C94.182 240.874 96.2441 243.627 96.1829 249.947Z" fill="url(#paint21_linear_99_24406)"/>
<path d="M61.106 196.639C61.106 196.639 41.719 190.985 39.7078 205.178C37.7802 218.782 47.6552 225.025 43.162 238.804C42.6412 240.401 80.0668 233.085 80.0668 233.085C75.0709 226.852 73.91 221.71 73.7907 218.135C73.6598 214.215 74.7896 212.434 73.7907 207.801C73.7907 207.801 72.6761 202.631 68.6551 198.192C68.0779 197.554 67.3897 196.89 61.106 196.639Z" fill="url(#paint22_linear_99_24406)"/>
<path d="M56.8967 188.133C57.0744 188.963 57.9783 193.415 56.1567 194.561C55.7618 194.809 55.0031 194.951 53.4854 195.236C52.4919 195.422 51.6583 195.536 51.0703 195.606C51.1552 196.353 51.4067 197.568 52.2684 198.673C54.6837 201.772 59.5267 200.97 60.2173 200.845C62.6532 200.401 65.0504 199.648 65.6294 199.188C66.5107 198.488 67.2038 197.962 67.6138 197.429C66.671 196.973 64.7678 195.772 63.4906 195.378C62.5361 195.085 61.6401 194.875 60.825 194.725C60.691 193.865 60.557 193.005 60.4229 192.144C59.2475 190.807 58.0721 189.47 56.8967 188.133Z" fill="white"/>
<path d="M56.8113 190.353C56.8113 190.353 57.1404 193.616 60.3123 194.191C63.1522 194.706 65.29 187.843 63.8365 186.068C63.3518 185.476 62.1549 184.913 61.1174 184.943C60.3878 184.964 57.923 185.902 57.5789 188.368C57.088 187.851 56.4764 187.703 56.1748 187.919C55.7923 188.194 55.9972 188.993 56.0437 189.174C56.2047 189.801 56.614 190.189 56.8113 190.353Z" fill="white"/>
<path d="M84.0208 234.684L54.3483 236.128C53.9399 236.148 53.5674 236.366 53.3513 236.713L52.5303 238.031C52.1216 238.687 52.6127 239.533 53.3851 239.504L84.8153 238.306L84.0208 234.684Z" fill="url(#paint23_linear_99_24406)"/>
<path d="M114.884 218.16L84.229 218.754C83.322 218.772 82.4914 219.266 82.0432 220.055L71.4277 238.732L103.803 237.442C104.692 237.406 105.503 236.925 105.959 236.162L115.795 219.731C116.213 219.032 115.699 218.145 114.884 218.16Z" fill="url(#paint24_linear_99_24406)"/>
<path opacity="0.3" d="M82.043 220.056C82.4912 219.267 83.3219 218.773 84.2289 218.755L84.9007 218.742C85.0009 219.732 85.3045 220.637 85.9101 221.368C87.8003 223.649 90.9408 222.242 93.2815 224.657C95.8528 227.309 93.4774 230.467 95.7764 232.935C98.1961 235.533 102.109 233.418 106.607 235.081L105.959 236.163C105.503 236.926 104.692 237.407 103.803 237.443L71.4277 238.732L82.043 220.056Z" fill="url(#paint25_linear_99_24406)"/>
<path d="M56.7664 233.693C57.1525 232.673 57.5388 231.654 57.925 230.634C53.6565 229.463 47.7531 227.734 41.6979 225.571C40.7496 225.232 39.623 224.812 39.2539 223.814C38.2185 221.015 44.8008 218.114 47.3596 212.002C49.7261 206.349 48.4236 198.504 45.6771 197.577C39.9619 195.649 19.695 220.876 26.9334 231.511C31.0252 237.522 43.64 238.48 56.7664 233.693Z" fill="url(#paint26_linear_99_24406)"/>
<path d="M57.926 230.632C60.6056 229.208 63.8133 230.668 64.02 230.765C64.6088 231.043 65.4658 231.538 66.3316 232.423C66.4294 232.556 67.5919 234.167 67.1684 234.683C66.829 235.096 65.5145 234.754 63.9346 233.771C63.2724 233.678 62.2864 233.593 61.1054 233.702C58.9365 233.902 57.943 234.587 57.1557 233.996C56.5791 233.563 56.3826 232.647 56.5901 231.967C56.8131 231.236 57.4724 230.873 57.926 230.632Z" fill="white"/>
<path d="M199.891 149.129C207.517 145.405 222.391 158.894 229.629 171.815C232.514 176.964 235.9 183.009 235.069 190.195C233.596 202.936 219.463 214.112 200.009 217.843C199.462 215.887 198.914 213.931 198.366 211.975C200.493 209.76 203.674 206.562 207.739 202.897C213.984 197.268 215.267 196.893 215.567 195.116C216.547 189.295 201.578 184.422 196.254 174.187C191.676 165.388 194.033 151.99 199.891 149.129Z" fill="url(#paint27_linear_99_24406)"/>
<path d="M209.908 251.532C209.908 251.532 208.657 254.621 209.279 255.83C209.933 257.1 211.822 256.723 217.142 256.923C222.59 257.127 223.822 257.564 224.04 257.017C224.475 255.923 220.242 252.45 215.29 251.532C213.109 251.128 211.219 251.299 209.908 251.532Z" fill="url(#paint28_linear_99_24406)"/>
<path d="M211.032 246.914L213.994 251.531C213.994 251.531 212.629 252.878 210.309 252.377L207.051 248.003L211.032 246.914Z" fill="url(#paint29_linear_99_24406)"/>
<path opacity="0.3" d="M196.254 174.189C191.676 165.39 194.033 151.992 199.891 149.131C201.427 148.381 203.26 148.339 205.263 148.84C204.209 151.886 204.418 154.088 204.938 155.647C207.259 162.604 217.294 161.812 220.429 169.73C222.411 174.735 219.259 177.219 222.072 181.23C224.987 185.388 229.753 184.691 231.225 188.741C232.322 191.759 230.159 193.475 230.991 196.017C231.222 196.725 231.679 197.437 232.447 198.112C227.291 207.384 215.295 214.913 200.009 217.845C199.462 215.889 198.914 213.933 198.366 211.977C200.493 209.762 203.674 206.564 207.739 202.899C213.984 197.27 215.267 196.895 215.567 195.118C216.547 189.297 201.578 184.424 196.254 174.189Z" fill="url(#paint30_linear_99_24406)"/>
<path d="M205.095 151.891C204.765 165.227 204.95 179.646 205.916 194.996C207.149 214.597 209.459 232.6 212.283 248.778C211.029 249.177 209.774 249.577 208.52 249.976C195.617 237.405 191.756 226.346 190.699 218.391C189.952 212.768 191.083 212.285 190.075 205.247C188.154 191.845 183.144 187.255 179.627 174.709C178.306 170 176.836 162.886 176.93 153.612C186.318 153.038 195.707 152.464 205.095 151.891Z" fill="url(#paint31_linear_99_24406)"/>
<path d="M214.338 128.004C214.104 128.058 213.086 128.397 212.684 132.646C211.714 142.891 217.049 147.04 215.735 152.596C214.474 157.929 208.044 160.517 201.426 163.18C197.003 164.96 183.322 170.465 175.367 164.275C172.018 161.67 171.652 158.524 169.263 146.963C163.194 117.588 160.843 115.064 163.395 108.706C167.779 97.7853 179.515 93.263 181.468 92.5106C202.289 84.4877 226.877 99.233 236.593 116.173C237.873 118.404 245.513 131.725 240.145 138.044C236.897 141.866 229.434 142.484 224.509 139.877C217.928 136.394 216.53 127.502 214.338 128.004Z" fill="url(#paint32_linear_99_24406)"/>
<path d="M237.093 135.772C237.158 135.772 237.224 135.759 237.287 135.73C237.523 135.622 237.627 135.344 237.52 135.108C237.341 134.717 233.043 125.493 223.111 121.854C222.867 121.763 222.598 121.889 222.509 122.133C222.42 122.376 222.545 122.646 222.789 122.735C232.342 126.236 236.623 135.406 236.665 135.498C236.744 135.671 236.914 135.772 237.093 135.772Z" fill="url(#paint33_linear_99_24406)"/>
<path d="M198.102 125.238C198.157 124.814 198.587 121.887 201.031 120.95C202.246 120.483 204.382 120.347 205.214 121.682C205.736 122.52 205.691 123.852 205.005 124.506C204.138 125.332 203.007 124.35 201.449 125.029C199.576 125.844 199.272 128.108 198.625 127.957C198.116 127.839 197.957 126.357 198.102 125.238Z" fill="url(#paint34_linear_99_24406)"/>
<path opacity="0.3" d="M177.008 104.95C178.322 108.527 174.379 111.627 176.069 115.512C178.492 121.078 188.118 118.221 191.56 123.726C195.639 130.251 186.298 140.953 190.152 144.615C191.908 146.285 193.937 144.147 199.071 145.32C206.382 146.99 208.579 152.768 211.98 151.891C213.049 151.616 214.346 150.645 215.437 147.656C215.912 149.315 216.139 150.889 215.735 152.596C214.474 157.929 208.044 160.516 201.425 163.18C197.002 164.96 183.322 170.464 175.367 164.275C172.018 161.669 171.652 158.524 169.263 146.963C163.194 117.588 160.843 115.064 163.395 108.705C164.787 105.238 166.921 102.418 169.247 100.156C174.261 101.264 176.32 103.077 177.008 104.95Z" fill="url(#paint35_linear_99_24406)"/>
<path d="M197.948 122.479C197.387 122.99 191.087 129.755 184.235 128.042C178.268 126.55 174.604 120.748 173.962 115.866C172.436 104.256 187.562 94.5106 185.698 92.1608C184.601 90.779 178.761 93.3435 174.666 95.9162C171.309 98.0258 157.242 106.866 157.619 121.687C157.657 123.191 157.899 132.723 164.208 137.48C172.727 143.905 185.894 143.733 199.96 128.203C199.181 125.986 198.728 124.697 197.948 122.479Z" fill="url(#paint36_linear_99_24406)"/>
<path d="M228.701 108.259L221.919 129.924C221.697 130.634 221.05 131.127 220.307 131.153L211.439 132.443C210.295 132.483 209.419 131.435 209.662 130.317L215.642 108.142C215.812 107.355 216.497 106.785 217.302 106.76L226.972 105.981C228.179 105.944 229.062 107.107 228.701 108.259Z" fill="url(#paint37_linear_99_24406)"/>
<path d="M228.376 108.97L221.794 129.996C221.578 130.686 220.951 131.164 220.229 131.189L212.436 132.441C211.326 132.48 210.476 131.463 210.711 130.378L216.552 108.843C216.718 108.079 217.382 107.526 218.164 107.502L226.698 106.759C227.869 106.722 228.726 107.852 228.376 108.97Z" fill="url(#paint38_linear_99_24406)"/>
<path opacity="0.3" d="M210.711 130.383L216.292 109.809C216.706 110.013 217.304 110.329 217.866 110.811C220.064 112.696 221.323 116.108 220.597 118.838C219.672 122.318 216.121 122.426 215.629 125.322C215.245 127.589 217.084 129.989 218.603 131.456L212.436 132.446C211.326 132.485 210.476 131.468 210.711 130.383Z" fill="url(#paint39_linear_99_24406)"/>
<path d="M202.93 90.4227C202.542 91.7845 203.361 93.1997 204.737 93.5318C206.405 93.934 208.436 94.4903 209.313 94.9922C210.923 95.9135 204.409 94.8492 198.418 94.7086C194.677 94.6209 191.882 94.201 190.31 93.8979C189.888 93.8164 189.855 93.2273 190.264 93.0944C191.761 92.6073 194.195 91.8901 196.252 91.6317C198.799 91.3115 201.53 85.6914 201.53 85.6914L203.713 87.6741L202.93 90.4227Z" fill="url(#paint40_linear_99_24406)"/>
<path d="M224.61 123.694L224.196 123.016C223.829 121.61 222.478 120.692 221.035 120.87L218.859 121.138C218.178 121.222 217.717 121.87 217.857 122.542C218.06 123.513 218.581 124.675 219.918 124.585C222.189 124.432 223.641 127.742 223.641 127.742L224.513 126.514C225.107 125.678 225.145 124.568 224.61 123.694Z" fill="url(#paint41_linear_99_24406)"/>
<path d="M207.794 87.5426C209.677 87.2637 211.785 85.6813 211.744 84.3738C211.688 82.5768 207.58 81.5926 205.506 81.0957C203.425 80.5973 202.543 80.7777 201.947 81.231C201.339 81.6942 200.939 82.5235 200.808 83.2386C200.737 83.6283 200.733 84.1645 200.8 85.233C200.859 86.1813 200.842 86.1396 200.866 86.4198C200.925 87.0926 201.109 88.2759 201.765 89.9163C202.038 89.6169 202.4 89.259 202.856 88.9063C203.032 88.7707 203.727 88.2453 204.518 87.927C205.875 87.3805 206.652 87.7118 207.794 87.5426Z" fill="url(#paint42_linear_99_24406)"/>
<path d="M200.763 88.0882C200.763 88.0882 200.885 90.7104 203.356 91.8616C205.569 92.8923 208.505 88.2732 207.697 86.5093C207.427 85.921 206.593 85.2809 205.738 85.0827C205.233 84.9656 204.985 85.0665 204.163 84.8592C203.406 84.668 203.259 84.4917 202.966 84.5506C202.6 84.6242 202.134 85.0407 201.785 86.6702C201.603 86.0344 201.201 85.608 200.765 85.5819C200.695 85.5777 200.494 85.5973 200.328 85.7033C199.73 86.0869 199.847 87.0592 200.763 88.0882Z" fill="url(#paint43_linear_99_24406)"/>
<path d="M302.559 157.7V269.692C302.559 271.367 301.199 271.843 299.654 272.028L244.879 279.683L244.021 279.787C242.258 279.999 240.811 278.702 240.811 276.904V156.661C240.811 154.863 242.258 153.422 244.021 153.458L245.185 153.482L300.134 157.125C301.678 157.154 302.559 156.025 302.559 157.7Z" fill="url(#paint44_linear_99_24406)"/>
<path d="M304.202 157.674V269.553C304.202 271.226 302.945 272.747 301.403 272.932L245.784 279.633C244.025 279.844 242.58 278.549 242.58 276.753V156.635C242.58 154.838 244.025 153.398 245.784 153.434L301.403 154.574C302.945 154.606 304.202 156 304.202 157.674Z" fill="url(#paint45_linear_99_24406)"/>
<path d="M302.466 163.857V267.61C302.466 269.174 301.288 270.592 299.845 270.761L247.55 276.915C245.916 277.107 244.574 275.897 244.574 274.225V163.31C244.574 161.638 245.916 160.288 247.55 160.309L299.845 160.98C301.288 160.999 302.466 162.293 302.466 163.857Z" fill="url(#paint46_linear_99_24406)"/>
<g opacity="0.48">
<path d="M286.521 224.415C281.498 211.154 267.83 213.992 263.533 200.456C260.011 189.363 267.828 183.2 264.775 170.388C263.058 163.181 258.821 157.674 254.47 153.612L245.786 153.434C244.027 153.398 242.582 154.838 242.582 156.635V276.752C242.582 278.549 244.027 279.844 245.786 279.632L288.709 274.462C285.333 268.935 283.973 263.858 283.492 259.635C281.741 244.247 291.1 236.504 286.521 224.415Z" fill="white"/>
</g>
<path d="M296.19 213.964C296.19 225.315 287.333 235.123 276.224 235.883C264.906 236.657 255.574 227.779 255.574 216.039C255.574 204.299 264.906 194.467 276.224 194.086C287.333 193.711 296.19 202.614 296.19 213.964Z" fill="white"/>
<path d="M266.153 220.297C265.933 220.309 265.725 220.187 265.637 219.97C265.052 218.525 264.756 216.976 264.756 215.369C264.756 208.517 270.198 202.72 276.822 202.451C280.585 202.298 284.147 204.011 286.361 207.024C286.538 207.264 286.487 207.616 286.248 207.81C286.009 208.004 285.672 207.967 285.495 207.727C283.48 204.989 280.242 203.434 276.822 203.577C270.807 203.827 265.87 209.093 265.87 215.312C265.87 216.771 266.139 218.177 266.669 219.489C266.784 219.773 266.646 220.111 266.361 220.244C266.293 220.276 266.223 220.293 266.153 220.297Z" fill="url(#paint47_linear_99_24406)"/>
<path d="M284.231 208.109C283.938 208.123 283.698 207.903 283.692 207.598C283.685 207.289 283.922 207.029 284.22 207.009L285.568 206.921L285.799 205.492C285.848 205.186 286.126 204.97 286.419 205.008C286.712 205.047 286.909 205.327 286.86 205.633L286.556 207.521C286.513 207.787 286.295 207.981 286.037 207.999L284.243 208.109C284.239 208.109 284.235 208.109 284.231 208.109Z" fill="url(#paint48_linear_99_24406)"/>
<path d="M276.822 227.061C273.118 227.287 269.659 225.771 267.345 222.89C267.156 222.654 267.198 222.295 267.439 222.088C267.68 221.881 268.029 221.904 268.218 222.14C270.318 224.757 273.457 226.138 276.822 225.935C282.777 225.577 287.578 220.318 287.578 214.21C287.578 212.956 287.378 211.736 286.984 210.583C286.886 210.297 287.034 209.972 287.314 209.857C287.594 209.742 287.9 209.881 287.998 210.167C288.431 211.436 288.651 212.777 288.651 214.155C288.651 220.873 283.373 226.66 276.822 227.061Z" fill="url(#paint49_linear_99_24406)"/>
<path d="M267.133 224.586C267.096 224.588 267.059 224.587 267.022 224.581C266.721 224.537 266.527 224.249 266.587 223.938L266.954 222.06C267.006 221.792 267.234 221.583 267.498 221.568C267.5 221.568 267.502 221.568 267.504 221.568L269.391 221.489C269.696 221.475 269.941 221.721 269.938 222.033C269.934 222.346 269.681 222.615 269.378 222.627L267.951 222.693L267.676 224.099C267.623 224.371 267.391 224.571 267.133 224.586Z" fill="url(#paint50_linear_99_24406)"/>
<path d="M275.71 220.766C275.537 220.776 275.363 220.738 275.206 220.648L271.532 218.536C271.075 218.274 270.931 217.669 271.212 217.185C271.492 216.702 272.089 216.524 272.545 216.787L275.513 218.498L282.131 210.189C282.473 209.759 283.075 209.682 283.474 210.018C283.873 210.352 283.919 210.972 283.578 211.402L276.442 220.379C276.253 220.616 275.983 220.751 275.71 220.766Z" fill="url(#paint51_linear_99_24406)"/>
<defs>
<linearGradient id="paint0_linear_99_24406" x1="109.913" y1="263.958" x2="231.369" y2="-3.44371" gradientUnits="userSpaceOnUse">
<stop offset="0.0036" stop-color="#E38DDD"/>
<stop offset="1" stop-color="#9571F6"/>
</linearGradient>
<linearGradient id="paint1_linear_99_24406" x1="22.5977" y1="160.647" x2="144.674" y2="160.647" gradientUnits="userSpaceOnUse">
<stop stop-color="#FF9085"/>
<stop offset="1" stop-color="#FB6FBB"/>
</linearGradient>
<linearGradient id="paint2_linear_99_24406" x1="140.088" y1="265.502" x2="119.187" y2="274.281" gradientUnits="userSpaceOnUse">
<stop stop-color="#40447E"/>
<stop offset="0.9964" stop-color="#3C3B6B"/>
</linearGradient>
<linearGradient id="paint3_linear_99_24406" x1="106.201" y1="177.903" x2="84.8487" y2="186.871" gradientUnits="userSpaceOnUse">
<stop stop-color="#40447E"/>
<stop offset="0.9964" stop-color="#3C3B6B"/>
</linearGradient>
<linearGradient id="paint4_linear_99_24406" x1="14.3086" y1="182.783" x2="211.918" y2="182.783" gradientUnits="userSpaceOnUse">
<stop stop-color="#40447E"/>
<stop offset="0.9964" stop-color="#3C3B6B"/>
</linearGradient>
<linearGradient id="paint5_linear_99_24406" x1="139.217" y1="134.729" x2="-12.7062" y2="383.091" gradientUnits="userSpaceOnUse">
<stop stop-color="#FFC444"/>
<stop offset="0.9964" stop-color="#F36F56"/>
</linearGradient>
<linearGradient id="paint6_linear_99_24406" x1="25.4378" y1="189.988" x2="191.355" y2="169.56" gradientUnits="userSpaceOnUse">
<stop stop-color="#FFC444"/>
<stop offset="0.9964" stop-color="#F36F56"/>
</linearGradient>
<linearGradient id="paint7_linear_99_24406" x1="14.3086" y1="256.288" x2="311.999" y2="256.288" gradientUnits="userSpaceOnUse">
<stop stop-color="#40447E"/>
<stop offset="0.9964" stop-color="#3C3B6B"/>
</linearGradient>
<linearGradient id="paint8_linear_99_24406" x1="43.5019" y1="253.979" x2="261.618" y2="253.979" gradientUnits="userSpaceOnUse">
<stop stop-color="#40447E"/>
<stop offset="0.9964" stop-color="#3C3B6B"/>
</linearGradient>
<linearGradient id="paint9_linear_99_24406" x1="98.1387" y1="172.973" x2="136.454" y2="172.973" gradientUnits="userSpaceOnUse">
<stop stop-color="#FB6FBB"/>
<stop offset="1" stop-color="#FF9085"/>
</linearGradient>
<linearGradient id="paint10_linear_99_24406" x1="131.48" y1="165.854" x2="137.176" y2="165.854" gradientUnits="userSpaceOnUse">
<stop stop-color="#FB6FBB"/>
<stop offset="1" stop-color="#FF9085"/>
</linearGradient>
<linearGradient id="paint11_linear_99_24406" x1="102.432" y1="186.035" x2="140.388" y2="186.035" gradientUnits="userSpaceOnUse">
<stop stop-color="#FB6FBB"/>
<stop offset="1" stop-color="#FF9085"/>
</linearGradient>
<linearGradient id="paint12_linear_99_24406" x1="101.303" y1="192.627" x2="107.163" y2="192.627" gradientUnits="userSpaceOnUse">
<stop stop-color="#FB6FBB"/>
<stop offset="1" stop-color="#FF9085"/>
</linearGradient>
<linearGradient id="paint13_linear_99_24406" x1="109.139" y1="180.383" x2="131.686" y2="180.383" gradientUnits="userSpaceOnUse">
<stop stop-color="#FB6FBB"/>
<stop offset="1" stop-color="#FF9085"/>
</linearGradient>
<linearGradient id="paint14_linear_99_24406" x1="73.811" y1="170.083" x2="-9.65863" y2="226.779" gradientUnits="userSpaceOnUse">
<stop stop-color="#311944"/>
<stop offset="1" stop-color="#6B3976"/>
</linearGradient>
<linearGradient id="paint15_linear_99_24406" x1="56.1125" y1="330.899" x2="92.1902" y2="166.167" gradientUnits="userSpaceOnUse">
<stop offset="0.0036" stop-color="#E38DDD"/>
<stop offset="1" stop-color="#9571F6"/>
</linearGradient>
<linearGradient id="paint16_linear_99_24406" x1="110.726" y1="301.11" x2="99.4843" y2="301.11" gradientUnits="userSpaceOnUse">
<stop stop-color="#311944"/>
<stop offset="1" stop-color="#6B3976"/>
</linearGradient>
<linearGradient id="paint17_linear_99_24406" x1="108.937" y1="280.47" x2="102.063" y2="280.47" gradientUnits="userSpaceOnUse">
<stop stop-color="#311944"/>
<stop offset="1" stop-color="#6B3976"/>
</linearGradient>
<linearGradient id="paint18_linear_99_24406" x1="99.0889" y1="242.608" x2="90.7158" y2="291.015" gradientUnits="userSpaceOnUse">
<stop stop-color="#AB316D"/>
<stop offset="1" stop-color="#792D3D"/>
</linearGradient>
<linearGradient id="paint19_linear_99_24406" x1="87.2628" y1="299.979" x2="75.3572" y2="262.3" gradientUnits="userSpaceOnUse">
<stop stop-color="#AB316D"/>
<stop offset="1" stop-color="#792D3D"/>
</linearGradient>
<linearGradient id="paint20_linear_99_24406" x1="87.2619" y1="299.979" x2="75.3563" y2="262.3" gradientUnits="userSpaceOnUse">
<stop stop-color="#AB316D"/>
<stop offset="1" stop-color="#792D3D"/>
</linearGradient>
<linearGradient id="paint21_linear_99_24406" x1="70.5104" y1="237.722" x2="62.1566" y2="286.018" gradientUnits="userSpaceOnUse">
<stop stop-color="#AB316D"/>
<stop offset="1" stop-color="#792D3D"/>
</linearGradient>
<linearGradient id="paint22_linear_99_24406" x1="36.3371" y1="326.566" x2="72.4147" y2="161.834" gradientUnits="userSpaceOnUse">
<stop offset="0.0036" stop-color="#E38DDD"/>
<stop offset="1" stop-color="#9571F6"/>
</linearGradient>
<linearGradient id="paint23_linear_99_24406" x1="84.8152" y1="237.094" x2="52.3828" y2="237.094" gradientUnits="userSpaceOnUse">
<stop stop-color="#40447E"/>
<stop offset="0.9964" stop-color="#3C3B6B"/>
</linearGradient>
<linearGradient id="paint24_linear_99_24406" x1="105.557" y1="216.636" x2="84.2934" y2="237.729" gradientUnits="userSpaceOnUse">
<stop stop-color="#40447E"/>
<stop offset="0.9964" stop-color="#3C3B6B"/>
</linearGradient>
<linearGradient id="paint25_linear_99_24406" x1="105.557" y1="216.637" x2="84.2933" y2="237.73" gradientUnits="userSpaceOnUse">
<stop stop-color="#40447E"/>
<stop offset="0.9964" stop-color="#3C3B6B"/>
</linearGradient>
<linearGradient id="paint26_linear_99_24406" x1="20.692" y1="323.146" x2="56.7697" y2="158.414" gradientUnits="userSpaceOnUse">
<stop offset="0.0036" stop-color="#E38DDD"/>
<stop offset="1" stop-color="#9571F6"/>
</linearGradient>
<linearGradient id="paint27_linear_99_24406" x1="235.197" y1="183.172" x2="193.846" y2="183.172" gradientUnits="userSpaceOnUse">
<stop stop-color="#444B8C"/>
<stop offset="0.9964" stop-color="#3E4177"/>
</linearGradient>
<linearGradient id="paint28_linear_99_24406" x1="210.712" y1="221.263" x2="216.98" y2="258.303" gradientUnits="userSpaceOnUse">
<stop stop-color="#444B8C"/>
<stop offset="0.9964" stop-color="#26264F"/>
</linearGradient>
<linearGradient id="paint29_linear_99_24406" x1="206.98" y1="227.591" x2="212.379" y2="261.389" gradientUnits="userSpaceOnUse">
<stop stop-color="#311944"/>
<stop offset="1" stop-color="#A03976"/>
</linearGradient>
<linearGradient id="paint30_linear_99_24406" x1="235.197" y1="183.176" x2="193.846" y2="183.176" gradientUnits="userSpaceOnUse">
<stop stop-color="#444B8C"/>
<stop offset="0.9964" stop-color="#3E4177"/>
</linearGradient>
<linearGradient id="paint31_linear_99_24406" x1="212.283" y1="200.933" x2="176.926" y2="200.933" gradientUnits="userSpaceOnUse">
<stop stop-color="#444B8C"/>
<stop offset="0.9964" stop-color="#3E4177"/>
</linearGradient>
<linearGradient id="paint32_linear_99_24406" x1="162.377" y1="128.7" x2="242.035" y2="128.7" gradientUnits="userSpaceOnUse">
<stop stop-color="#FF9085"/>
<stop offset="1" stop-color="#FB6FBB"/>
</linearGradient>
<linearGradient id="paint33_linear_99_24406" x1="222.48" y1="128.798" x2="237.562" y2="128.798" gradientUnits="userSpaceOnUse">
<stop stop-color="#FF9085"/>
<stop offset="1" stop-color="#FB6FBB"/>
</linearGradient>
<linearGradient id="paint34_linear_99_24406" x1="196.734" y1="116.174" x2="203.009" y2="126.772" gradientUnits="userSpaceOnUse">
<stop stop-color="#311944"/>
<stop offset="1" stop-color="#A03976"/>
</linearGradient>
<linearGradient id="paint35_linear_99_24406" x1="162.377" y1="133.647" x2="215.944" y2="133.647" gradientUnits="userSpaceOnUse">
<stop stop-color="#FF9085"/>
<stop offset="1" stop-color="#FB6FBB"/>
</linearGradient>
<linearGradient id="paint36_linear_99_24406" x1="157.611" y1="116.62" x2="199.96" y2="116.62" gradientUnits="userSpaceOnUse">
<stop stop-color="#FF9085"/>
<stop offset="1" stop-color="#FB6FBB"/>
</linearGradient>
<linearGradient id="paint37_linear_99_24406" x1="232.931" y1="129.556" x2="210.444" y2="112.613" gradientUnits="userSpaceOnUse">
<stop stop-color="#444B8C"/>
<stop offset="0.9964" stop-color="#26264F"/>
</linearGradient>
<linearGradient id="paint38_linear_99_24406" x1="222.764" y1="112.907" x2="212.071" y2="132.186" gradientUnits="userSpaceOnUse">
<stop stop-color="#444B8C"/>
<stop offset="0.9964" stop-color="#26264F"/>
</linearGradient>
<linearGradient id="paint39_linear_99_24406" x1="209.059" y1="107.18" x2="225.704" y2="147.484" gradientUnits="userSpaceOnUse">
<stop stop-color="#444B8C"/>
<stop offset="0.9964" stop-color="#26264F"/>
</linearGradient>
<linearGradient id="paint40_linear_99_24406" x1="197.343" y1="73.694" x2="200.316" y2="99.0425" gradientUnits="userSpaceOnUse">
<stop stop-color="#311944"/>
<stop offset="1" stop-color="#A03976"/>
</linearGradient>
<linearGradient id="paint41_linear_99_24406" x1="224.986" y1="124.295" x2="217.832" y2="124.295" gradientUnits="userSpaceOnUse">
<stop stop-color="#311944"/>
<stop offset="1" stop-color="#A03976"/>
</linearGradient>
<linearGradient id="paint42_linear_99_24406" x1="210.002" y1="72.7983" x2="206.028" y2="84.6167" gradientUnits="userSpaceOnUse">
<stop stop-color="#444B8C"/>
<stop offset="0.9964" stop-color="#26264F"/>
</linearGradient>
<linearGradient id="paint43_linear_99_24406" x1="200.031" y1="77.1204" x2="202.848" y2="84.1617" gradientUnits="userSpaceOnUse">
<stop stop-color="#311944"/>
<stop offset="1" stop-color="#A03976"/>
</linearGradient>
<linearGradient id="paint44_linear_99_24406" x1="314.566" y1="254.246" x2="261.494" y2="208.974" gradientUnits="userSpaceOnUse">
<stop stop-color="#444B8C"/>
<stop offset="0.9964" stop-color="#26264F"/>
</linearGradient>
<linearGradient id="paint45_linear_99_24406" x1="271.141" y1="273.576" x2="278.784" y2="68.1283" gradientUnits="userSpaceOnUse">
<stop stop-color="#444B8C"/>
<stop offset="0.9964" stop-color="#26264F"/>
</linearGradient>
<linearGradient id="paint46_linear_99_24406" x1="289.909" y1="193.455" x2="221.724" y2="285.134" gradientUnits="userSpaceOnUse">
<stop stop-color="#FFC444"/>
<stop offset="0.9964" stop-color="#F36F56"/>
</linearGradient>
<linearGradient id="paint47_linear_99_24406" x1="300.468" y1="237.904" x2="273.517" y2="210.953" gradientUnits="userSpaceOnUse">
<stop stop-color="#FB6FBB"/>
<stop offset="1" stop-color="#FF9085"/>
</linearGradient>
<linearGradient id="paint48_linear_99_24406" x1="308.545" y1="229.826" x2="281.594" y2="202.875" gradientUnits="userSpaceOnUse">
<stop stop-color="#FB6FBB"/>
<stop offset="1" stop-color="#FF9085"/>
</linearGradient>
<linearGradient id="paint49_linear_99_24406" x1="299.755" y1="238.621" x2="272.804" y2="211.67" gradientUnits="userSpaceOnUse">
<stop stop-color="#FB6FBB"/>
<stop offset="1" stop-color="#FF9085"/>
</linearGradient>
<linearGradient id="paint50_linear_99_24406" x1="291.797" y1="246.578" x2="264.846" y2="219.627" gradientUnits="userSpaceOnUse">
<stop stop-color="#FB6FBB"/>
<stop offset="1" stop-color="#FF9085"/>
</linearGradient>
<linearGradient id="paint51_linear_99_24406" x1="300.792" y1="237.586" x2="273.841" y2="210.635" gradientUnits="userSpaceOnUse">
<stop stop-color="#FB6FBB"/>
<stop offset="1" stop-color="#FF9085"/>
</linearGradient>
</defs>
</svg>
