<svg width="32" height="32" viewBox="0 0 32 32" fill="none" xmlns="http://www.w3.org/2000/svg">
<g id="ic_success_colored">
<circle id="bg" cx="15.9993" cy="16.0013" r="13.3333" fill="white"/>
<path id="Vector" d="M15.9994 2.66797C13.3623 2.66797 10.7844 3.44996 8.59175 4.91504C6.3991 6.38013 4.69013 8.46251 3.68096 10.8989C2.67179 13.3352 2.40775 16.0161 2.92222 18.6025C3.43669 21.1889 4.70656 23.5647 6.57126 25.4294C8.43597 27.2941 10.8117 28.564 13.3982 29.0784C15.9846 29.5929 18.6655 29.3289 21.1018 28.3197C23.5382 27.3105 25.6205 25.6016 27.0856 23.4089C28.5507 21.2162 29.3327 18.6384 29.3327 16.0013C29.3327 14.2503 28.9878 12.5165 28.3177 10.8989C27.6477 9.28118 26.6656 7.81133 25.4274 6.57321C24.1893 5.3351 22.7195 4.35297 21.1018 3.68291C19.4841 3.01285 17.7503 2.66797 15.9994 2.66797ZM22.946 12.948L14.946 20.948C14.8221 21.0729 14.6746 21.1721 14.5121 21.2398C14.3496 21.3075 14.1754 21.3424 13.9994 21.3424C13.8233 21.3424 13.6491 21.3075 13.4866 21.2398C13.3241 21.1721 13.1766 21.0729 13.0527 20.948L9.05269 16.948C8.92837 16.8237 8.82976 16.6761 8.76248 16.5136C8.6952 16.3512 8.66057 16.1771 8.66057 16.0013C8.66057 15.6462 8.80162 15.3057 9.05269 15.0546C9.30376 14.8036 9.64429 14.6625 9.99935 14.6625C10.3544 14.6625 10.695 14.8036 10.946 15.0546L13.9994 18.1213L21.0527 11.0546C21.3038 10.8036 21.6443 10.6625 21.9994 10.6625C22.3544 10.6625 22.695 10.8036 22.946 11.0546C23.1971 11.3057 23.3381 11.6462 23.3381 12.0013C23.3381 12.3564 23.1971 12.6969 22.946 12.948Z" fill="#25AB21"/>
</g>
</svg>
